<?xml version="1.0" encoding="UTF-8" standalone="no"?>
<!-- Created with Inkscape (http://www.inkscape.org/) -->

<svg
   width="12.86797mm"
   height="12.557626mm"
   viewBox="0 0 12.86797 12.557626"
   version="1.1"
   id="svg5"
   inkscape:version="1.2.1 (9c6d41e410, 2022-07-14)"
   sodipodi:docname="SetRandomColor.svg"
   xmlns:inkscape="http://www.inkscape.org/namespaces/inkscape"
   xmlns:sodipodi="http://sodipodi.sourceforge.net/DTD/sodipodi-0.dtd"
   xmlns="http://www.w3.org/2000/svg"
   xmlns:svg="http://www.w3.org/2000/svg">
  <sodipodi:namedview
     id="namedview7"
     pagecolor="#ffffff"
     bordercolor="#000000"
     borderopacity="0.25"
     inkscape:showpageshadow="2"
     inkscape:pageopacity="0.0"
     inkscape:pagecheckerboard="0"
     inkscape:deskcolor="#d1d1d1"
     inkscape:document-units="mm"
     showgrid="false"
     inkscape:zoom="8.4359983"
     inkscape:cx="53.994795"
     inkscape:cy="33.191093"
     inkscape:window-width="1920"
     inkscape:window-height="1017"
     inkscape:window-x="-8"
     inkscape:window-y="-8"
     inkscape:window-maximized="1"
     inkscape:current-layer="layer1"
     showguides="true">
    <sodipodi:guide
       position="-123.20562,12.392484"
       orientation="0,-1"
       id="guide6336"
       inkscape:locked="false" />
  </sodipodi:namedview>
  <defs
     id="defs2">
    <rect
       x="115.22051"
       y="293.26703"
       width="21.337132"
       height="22.285448"
       id="rect1050" />
    <rect
       x="115.22051"
       y="293.26703"
       width="21.337132"
       height="22.285448"
       id="rect1050-0" />
    <rect
       x="115.22051"
       y="293.26703"
       width="21.337132"
       height="22.285448"
       id="rect1050-0-4" />
    <rect
       x="115.22051"
       y="293.26703"
       width="21.337132"
       height="22.285448"
       id="rect1050-0-4-2" />
    <rect
       x="115.22051"
       y="293.26703"
       width="21.337132"
       height="22.285448"
       id="rect1050-0-4-8" />
    <rect
       x="115.22051"
       y="293.26703"
       width="21.337132"
       height="22.285448"
       id="rect1050-0-4-7" />
    <rect
       x="115.22051"
       y="293.26703"
       width="21.337132"
       height="22.285448"
       id="rect1050-0-4-7-8" />
    <rect
       x="115.22051"
       y="293.26703"
       width="21.337132"
       height="22.285448"
       id="rect1050-0-4-7-8-1" />
    <rect
       x="115.22051"
       y="293.26703"
       width="21.337132"
       height="22.285448"
       id="rect1050-0-4-7-8-1-1" />
    <rect
       x="115.22051"
       y="293.26703"
       width="21.337132"
       height="22.285448"
       id="rect1050-0-4-7-8-1-1-5" />
    <rect
       x="115.22051"
       y="293.26703"
       width="21.337132"
       height="22.285448"
       id="rect1050-0-4-7-8-1-1-5-1" />
  </defs>
  <g
     inkscape:label="Layer 1"
     inkscape:groupmode="layer"
     id="layer1"
     transform="translate(-194.26207,-75.790323)">
    <path
       style="fill:#acd877;stroke:#000000;stroke-width:1;stroke-dasharray:none;stroke-opacity:1;fill-opacity:1"
       d="m 206.56048,83.675402 c 0,0 0.65085,2.022971 -1.95161,3.459677 -1.50791,0.832456 -1.88509,0.465726 -1.88509,0.465726 -0.30309,-0.561828 -0.34094,-0.725798 -0.90927,-1.685484 0,0 -1.26156,-1.05895 -2.92742,0.266131 -0.50197,0.399285 -0.74079,1.221114 -1.11623,1.451724 -0.63817,0.392002 -1.45635,0.100694 -1.45635,0.100694 l -1.09804,-1.613728 -0.45438,-1.823771 -2e-5,-2.550403 1.86289,-3.858872 c 0,0 1.81856,-1.596773 3.41533,-1.596773 1.59677,0 4.23589,1.53024 4.23589,1.53024 l 2.23992,3.570565 z"
       id="path11221"
       sodipodi:nodetypes="csccsscccccsccc" />
    <ellipse
       style="fill:#ffffff;stroke:#000000;stroke-width:0.264999;stroke-dasharray:none;stroke-opacity:1;fill-opacity:1"
       id="path8177-3"
       cx="196.60591"
       cy="81.837334"
       rx="0.68999934"
       ry="0.65863574" />
    <ellipse
       style="fill:#ffffff;stroke:#000000;stroke-width:0.264999;stroke-dasharray:none;stroke-opacity:1;fill-opacity:1"
       id="path8177-3-8"
       cx="198.19958"
       cy="80.260086"
       rx="0.68999934"
       ry="0.65863574" />
    <ellipse
       style="fill:#ffffff;stroke:#000000;stroke-width:0.264999;stroke-dasharray:none;stroke-opacity:1;fill-opacity:1"
       id="path8177-3-4"
       cx="200.28427"
       cy="79.328629"
       rx="0.68999934"
       ry="0.65863574" />
    <ellipse
       style="fill:#ffffff;stroke:#000000;stroke-width:0.264999;stroke-dasharray:none;stroke-opacity:1;fill-opacity:1"
       id="path8177-3-9"
       cx="202.50201"
       cy="79.639114"
       rx="0.68999934"
       ry="0.65863574" />
    <ellipse
       style="fill:#ffffff;stroke:#000000;stroke-width:0.264999;stroke-dasharray:none;stroke-opacity:1;fill-opacity:1"
       id="path8177-3-88"
       cx="204.43146"
       cy="81.08065"
       rx="0.68999934"
       ry="0.65863574" />
  </g>
</svg>
